<?xml version="1.0" encoding="utf-8"?>
<!-- Generator: Adobe Illustrator 16.0.0, SVG Export Plug-In . SVG Version: 6.00 Build 0)  -->
<!DOCTYPE svg PUBLIC "-//W3C//DTD SVG 1.1//EN" "http://www.w3.org/Graphics/SVG/1.1/DTD/svg11.dtd">
<svg version="1.1" id="图层_3" xmlns="http://www.w3.org/2000/svg" xmlns:xlink="http://www.w3.org/1999/xlink" x="0px" y="0px"
	 width="192px" height="192px" viewBox="0 0 192 192" enable-background="new 0 0 192 192" xml:space="preserve">
<path fill="#F7F4EB" d="M168.197,152.394c0,6.494-5.021,11.812-11.516,11.812l0,0H35.629c-6.495,0-11.514-5.316-11.514-11.812l0,0
	V94.82c0-6.497,5.314-11.811,11.514-11.811h121.053c6.494,0,11.516,5.314,11.516,11.811V152.394z"/>
<path fill="#4E4E4E" d="M156.682,167.45H35.629c-8.267,0-15.057-6.791-15.057-15.354V94.524c0-8.267,6.791-15.353,15.057-15.353
	h121.053c8.268,0,15.059,6.791,15.059,15.353v57.574C171.74,160.659,164.949,167.45,156.682,167.45z M35.629,86.257
	c-4.428,0-8.267,3.839-8.267,8.267v57.574c0,4.726,3.543,8.267,8.267,8.267h121.053c4.43,0,8.268-3.838,8.268-8.267V94.524
	c0-4.428-3.545-8.267-8.268-8.267H35.629z"/>
<path fill="#A09F9F" d="M56.297,101.61h8.268v38.679h-8.268V101.61z"/>
<path fill="#4E4E4E" d="M52.164,101.61h8.268v38.679h-8.268V101.61z"/>
<path fill="#A09F9F" d="M73.717,101.61h8.268v38.679h-8.268V101.61z"/>
<path fill="#4E4E4E" d="M69.584,101.61h8.268v38.679h-8.268V101.61z"/>
<path fill="#A09F9F" d="M91.137,101.61h8.266v38.679h-8.266V101.61z"/>
<path fill="#4E4E4E" d="M87.003,101.61h8.267v38.679h-8.267V101.61z"/>
<path fill="#A09F9F" d="M117.709,101.61h8.268v38.679h-8.268V101.61z"/>
<path fill="#4E4E4E" d="M113.576,101.61h8.267v38.679h-8.267V101.61z"/>
<path fill="#A09F9F" d="M135.129,101.61h8.27v38.679h-8.27V101.61z"/>
<path fill="#4E4E4E" d="M130.994,101.61h8.268v38.679h-8.268V101.61z"/>
<path fill="#4E4E4E" d="M20.572,58.504v60.524H171.74V85.371c0-10.923-9.152-19.487-20.668-19.487h-36.021l-14.763-22.142
	C93.499,30.455,89.07,24.55,78.146,24.55H40.059c-10.924,0-19.782,8.857-19.782,19.487L20.572,58.504"/>
</svg>
